# This file uses centimeters as units for non-parametric coordinates.

mtllib Wolf_5.mtl
v 5.992420 0.000000 -0.647889
v 6.007580 0.000000 -0.647889
v 5.992420 0.320444 -0.547656
v 6.007580 0.320444 -0.547656
v 6.007580 0.000000 -0.183799
v 5.992420 0.000000 -0.183799
v 5.992420 0.467207 -0.316390
v 6.007580 0.467207 -0.316390
v 5.860452 -0.000000 -0.442755
v 5.860452 -0.000000 -0.460212
v 5.939970 0.296932 -0.442755
v 5.939970 0.296932 -0.460212
v 5.992420 0.000000 -0.460212
v 5.992420 0.000000 -0.442755
v 5.992420 0.296933 -0.460212
v 5.992420 0.296933 -0.442755
v 6.139548 -0.000000 -0.460212
v 6.139548 -0.000000 -0.442755
v 6.060030 0.296934 -0.460212
v 6.060030 0.296934 -0.442755
v 6.007580 0.000000 -0.442755
v 6.007580 0.000000 -0.460212
v 6.007580 0.296933 -0.460212
v 6.007580 0.296933 -0.442755
v 5.603293 0.570283 -0.340744
v 6.399470 0.448273 -0.298151
v 6.305125 0.714932 -0.372365
v 5.771296 0.715903 -0.378754
v 5.692665 -0.002892 -0.182526
v 6.259376 -0.000000 -0.176819
v 6.422751 0.149630 -0.215981
v 5.583680 0.207686 -0.241527
v 5.603039 0.576349 -0.318627
v 6.399216 0.454339 -0.276034
v 6.304871 0.720998 -0.350247
v 5.771042 0.721969 -0.356636
v 5.583426 0.213752 -0.219410
v 6.422498 0.155696 -0.193863
v 5.692411 0.003174 -0.160408
v 6.259122 0.006066 -0.154701
vt 0.435100 0.379941
vt 0.189498 0.535801
vt 0.048687 0.039632
vt 0.541547 0.039632
vt 0.532814 0.761358
vt 0.426367 0.421050
vt 0.919227 0.421050
vt 0.778416 0.917219
vt 0.120487 0.478373
vt 0.136587 0.478373
vt 0.136587 0.971233
vt 0.120487 0.971233
vt 0.074633 0.631931
vt 0.090734 0.631931
vt 0.090734 0.972240
vt 0.074633 0.972240
vt 0.074633 0.476071
vt 0.090734 0.476071
vt 0.098149 0.476071
vt 0.114250 0.476071
vt 0.114250 0.972240
vt 0.098149 0.972240
vt 0.875094 0.263039
vt 0.771251 0.263039
vt 0.771251 0.042402
vt 0.875094 0.042402
vt 0.741624 0.957596
vt 0.637780 0.957596
vt 0.637780 0.042402
vt 0.741624 0.042402
vt 0.036142 0.957598
vt 0.169089 0.042404
vt 0.256779 0.042402
vt 0.256779 0.957598
vt 0.395673 0.957596
vt 0.262726 0.042402
vt 0.483363 0.042402
vt 0.483363 0.957598
vt 0.875142 0.398925
vt 0.770633 0.398925
vt 0.770633 0.275165
vt 0.875142 0.275165
vt 0.511050 0.042402
vt 0.614893 0.042402
vt 0.614893 0.957598
vt 0.511050 0.957598
vt 0.771250 0.263038
vt 0.771250 0.042402
vt 0.875093 0.042402
vt 0.875093 0.263038
vt 0.256779 0.957598
vt 0.036142 0.957598
vt 0.036142 0.042404
vt 0.123831 0.042402
vt 0.262726 0.042402
vt 0.483362 0.042402
vt 0.350415 0.957598
vt 0.262726 0.957596
vt 0.511050 0.042402
vt 0.614893 0.042402
vt 0.614893 0.957598
vt 0.511050 0.957598
vt 0.875141 0.275164
vt 0.875141 0.398924
vt 0.770634 0.398924
vt 0.770634 0.275164
vt 0.741623 0.042402
vt 0.741623 0.957596
vt 0.637780 0.957596
vt 0.637780 0.042402
vt 0.017407 0.887497
vt 0.490492 0.813817
vt 0.433496 0.977777
vt 0.116597 0.977425
vt 0.007110 0.664285
vt 0.505421 0.630045
vt 0.072588 0.534868
vt 0.408992 0.537657
vt 0.978680 0.868544
vt 0.884901 0.952674
vt 0.586706 0.951442
vt 0.533883 0.796879
vt 0.989470 0.658558
vt 0.520742 0.623880
vt 0.611934 0.537422
vt 0.928495 0.536457
vt 0.017348 0.242368
vt 0.222624 0.242376
vt 0.222623 0.264773
vt 0.017347 0.264766
vt 0.616304 0.242428
vt 0.616302 0.264825
vt 0.018397 0.314782
vt 0.182362 0.314799
vt 0.182361 0.337196
vt 0.018396 0.337179
vt 0.582781 0.277567
vt 0.803459 0.277567
vt 0.803458 0.299965
vt 0.582782 0.299964
vt 0.461227 0.314803
vt 0.461228 0.337200
vt 0.630756 0.314793
vt 0.630757 0.337190
vt 0.014773 0.277639
vt 0.429227 0.277583
vt 0.429228 0.299981
vt 0.014775 0.300036
vn 0.000000 -1.000000 0.000000
vn 0.000000 -1.000000 0.000000
vn 0.000000 -1.000000 0.000000
vn 0.000000 -1.000000 0.000000
vn 0.000000 0.298526 -0.954402
vn 0.000000 0.298526 -0.954402
vn 0.000000 0.298526 -0.954402
vn 0.000000 0.298526 -0.954402
vn 0.000000 0.844329 -0.535825
vn 0.000000 0.844329 -0.535825
vn 0.000000 0.844329 -0.535825
vn 0.000000 0.844329 -0.535825
vn 0.000000 0.273008 0.962012
vn 0.000000 0.273008 0.962012
vn 0.000000 0.273008 0.962012
vn 0.000000 0.273008 0.962012
vn 1.000000 0.000001 0.000000
vn 1.000000 0.000001 0.000000
vn 1.000000 0.000001 0.000000
vn 1.000000 0.000001 0.000000
vn -1.000000 0.000001 0.000000
vn -1.000000 0.000001 0.000000
vn -1.000000 0.000001 0.000000
vn -1.000000 0.000001 0.000000
vn 0.000000 -1.000000 0.000000
vn 0.000000 -1.000000 0.000000
vn 0.000000 -1.000000 0.000000
vn 0.000000 -1.000000 0.000000
vn -0.965962 0.258684 0.000000
vn -0.965962 0.258684 0.000000
vn -0.965962 0.258684 0.000000
vn -0.965962 0.258684 0.000000
vn -0.000000 0.000000 -1.000000
vn -0.000000 0.000000 -1.000000
vn -0.000000 0.000000 -1.000000
vn -0.000000 0.000000 -1.000000
vn -0.000000 0.000000 1.000000
vn -0.000000 0.000000 1.000000
vn -0.000000 0.000000 1.000000
vn -0.000000 0.000000 1.000000
vn -0.000015 1.000000 0.000000
vn -0.000015 1.000000 0.000000
vn -0.000015 1.000000 0.000000
vn -0.000015 1.000000 0.000000
vn 1.000000 0.000000 0.000000
vn 1.000000 0.000000 0.000000
vn 1.000000 0.000000 0.000000
vn 1.000000 0.000000 0.000000
vn -0.000000 -1.000000 0.000000
vn -0.000000 -1.000000 0.000000
vn -0.000000 -1.000000 0.000000
vn -0.000000 -1.000000 0.000000
vn 0.000000 0.000000 -1.000000
vn 0.000000 0.000000 -1.000000
vn 0.000000 0.000000 -1.000000
vn 0.000000 0.000000 -1.000000
vn 0.000000 0.000000 1.000000
vn 0.000000 0.000000 1.000000
vn 0.000000 0.000000 1.000000
vn 0.000000 0.000000 1.000000
vn 0.965962 0.258684 0.000000
vn 0.965962 0.258684 0.000000
vn 0.965962 0.258684 0.000000
vn 0.965962 0.258684 0.000000
vn -0.000015 1.000000 0.000000
vn -0.000015 1.000000 0.000000
vn -0.000015 1.000000 0.000000
vn -0.000015 1.000000 0.000000
vn -1.000000 0.000000 0.000000
vn -1.000000 0.000000 0.000000
vn -1.000000 0.000000 0.000000
vn -1.000000 0.000000 0.000000
vn -0.011061 0.264469 0.964331
vn -0.011061 0.264469 0.964331
vn -0.011061 0.264469 0.964331
vn -0.011061 0.264469 0.964331
vn -0.011061 0.264469 0.964331
vn -0.011061 0.264469 0.964331
vn -0.011061 0.264468 0.964331
vn -0.011061 0.264468 0.964331
vn 0.011061 -0.264469 -0.964331
vn 0.011061 -0.264469 -0.964331
vn 0.011061 -0.264469 -0.964331
vn 0.011061 -0.264469 -0.964331
vn 0.011061 -0.264469 -0.964331
vn 0.011061 -0.264469 -0.964331
vn 0.011061 -0.264469 -0.964331
vn 0.011061 -0.264469 -0.964331
vn 0.980415 0.192511 -0.041550
vn 0.946462 0.313926 -0.075238
vn 0.946462 0.313926 -0.075238
vn 0.980415 0.192511 -0.041550
vn 0.004919 0.964393 -0.264429
vn 0.004919 0.964393 -0.264429
vn 0.004919 0.964393 -0.264429
vn 0.004919 0.964393 -0.264429
vn -0.667149 0.716410 -0.204129
vn -0.667149 0.716410 -0.204129
vn -0.667149 0.716410 -0.204129
vn -0.667149 0.716410 -0.204129
vn 0.997125 0.075209 -0.009189
vn 0.997125 0.075209 -0.009189
vn -0.998581 0.047324 -0.024433
vn -0.988830 -0.146245 0.028766
vn -0.988830 -0.146244 0.028766
vn -0.998581 0.047324 -0.024433
vn -0.894947 -0.432797 0.108432
vn -0.894947 -0.432797 0.108432
vn 0.002258 -0.964381 0.264509
vn 0.002258 -0.964381 0.264509
vn 0.002258 -0.964381 0.264509
vn 0.002258 -0.964381 0.264509
vn 0.687406 -0.698361 0.199412
vn 0.687406 -0.698361 0.199412
vn 0.687406 -0.698361 0.199412
vn 0.687406 -0.698361 0.199412
s off
usemtl lambert5SG
f 1/9/1 2/10/2 5/11/3 6/12/4
f 3/13/5 4/14/6 2/15/7 1/16/8
f 7/17/9 8/18/10 4/14/11 3/13/12
f 6/19/13 5/20/14 8/21/15 7/22/16
f 4/1/17 8/2/18 5/3/19 2/4/20
f 3/5/21 1/6/22 6/7/23 7/8/24
usemtl lambert6SG
f 9/23/25 10/24/26 13/25/27 14/26/28
f 11/27/29 12/28/30 10/29/31 9/30/32
f 10/31/33 12/32/34 15/33/35 13/34/36
f 11/35/37 9/36/38 14/37/39 16/38/40
f 15/39/41 12/40/42 11/41/43 16/42/44
f 14/43/45 13/44/46 15/45/47 16/46/48
f 22/47/49 17/48/50 18/49/51 21/50/52
f 17/51/53 22/52/54 23/53/55 19/54/56
f 21/55/57 18/56/58 20/57/59 24/58/60
f 18/59/61 17/60/62 19/61/63 20/62/64
f 20/63/65 19/64/66 23/65/67 24/66/68
f 21/67/69 24/68/70 23/69/71 22/70/72
s 1
usemtl lambert10SG
f 33/71/73 34/72/74 35/73/75 36/74/76
f 37/75/77 38/76/78 34/72/74 33/71/73
f 37/75/77 39/77/79 40/78/80 38/76/78
s 2
f 25/79/81 28/80/82 27/81/83 26/82/84
f 32/83/85 25/79/81 26/82/84 31/84/86
f 32/83/85 31/84/86 30/85/87 29/86/88
s 3
f 26/87/89 27/88/90 35/89/91 34/90/92
s off
f 27/88/93 28/91/94 36/92/95 35/89/96
f 28/93/97 25/94/98 33/95/99 36/96/100
s 3
f 31/97/101 26/98/89 34/99/92 38/100/102
s 4
f 25/94/103 32/101/104 37/102/105 33/95/106
f 32/101/104 29/103/107 39/104/108 37/102/105
s off
f 29/105/109 30/106/110 40/107/111 39/108/112
f 30/106/113 31/97/114 38/100/115 40/107/116
