# This file uses centimeters as units for non-parametric coordinates.

mtllib Wolf_3.mtl
v 4.081145 0.000000 -0.460212
v 4.213112 -0.000000 -0.460212
v 4.213112 -0.000000 -0.442755
v 4.081145 0.000000 -0.442755
v 4.081145 0.296933 -0.442755
v 4.081145 0.296933 -0.460212
v 4.133594 0.296934 -0.460212
v 4.133594 0.296934 -0.442755
v 3.934016 -0.000000 -0.442755
v 3.934016 -0.000000 -0.460212
v 4.065984 0.000000 -0.460212
v 4.065984 0.000000 -0.442755
v 4.065984 0.320444 -0.547656
v 4.081144 0.320444 -0.547656
v 4.081144 0.000000 -0.647889
v 4.065984 0.000000 -0.647889
v 4.013535 0.296932 -0.442755
v 4.013535 0.296932 -0.460212
v 4.065984 0.296933 -0.460212
v 4.065984 0.296933 -0.442755
v 4.081144 0.467207 -0.316390
v 4.081144 0.000000 -0.183799
v 4.065984 0.467207 -0.316390
v 4.065984 0.000000 -0.183799
v 3.657244 0.207686 -0.241527
v 3.766230 -0.002892 -0.182526
v 3.765976 0.003174 -0.160408
v 3.656990 0.213752 -0.219410
v 3.676857 0.570283 -0.340744
v 3.676604 0.576349 -0.318627
v 4.332940 -0.000000 -0.176819
v 4.332686 0.006066 -0.154701
v 4.496315 0.149630 -0.215981
v 4.496062 0.155696 -0.193863
v 3.844860 0.715903 -0.378754
v 3.844607 0.721969 -0.356636
v 4.473034 0.448273 -0.298151
v 4.472780 0.454339 -0.276034
v 4.378689 0.714932 -0.372365
v 4.378435 0.720998 -0.350247
vt 0.771250 0.263038
vt 0.771250 0.042402
vt 0.875093 0.042402
vt 0.875093 0.263038
vt 0.741623 0.042402
vt 0.741623 0.957596
vt 0.637780 0.957596
vt 0.637780 0.042402
vt 0.256779 0.957598
vt 0.036142 0.957598
vt 0.036142 0.042404
vt 0.123831 0.042402
vt 0.262726 0.042402
vt 0.483362 0.042402
vt 0.350415 0.957598
vt 0.262726 0.957596
vt 0.511050 0.042402
vt 0.614893 0.042402
vt 0.614893 0.957598
vt 0.511050 0.957598
vt 0.875141 0.275164
vt 0.875141 0.398924
vt 0.770634 0.398924
vt 0.770634 0.275164
vt 0.875094 0.263039
vt 0.771251 0.263039
vt 0.771251 0.042402
vt 0.875094 0.042402
vt 0.074633 0.631931
vt 0.090734 0.631931
vt 0.090734 0.972240
vt 0.074633 0.972240
vt 0.741624 0.957596
vt 0.637780 0.957596
vt 0.637780 0.042402
vt 0.741624 0.042402
vt 0.036142 0.957598
vt 0.169089 0.042404
vt 0.256779 0.042402
vt 0.256779 0.957598
vt 0.395673 0.957596
vt 0.262726 0.042402
vt 0.483363 0.042402
vt 0.483363 0.957598
vt 0.435100 0.379941
vt 0.189498 0.535801
vt 0.048687 0.039632
vt 0.541547 0.039632
vt 0.875142 0.398925
vt 0.770633 0.398925
vt 0.770633 0.275165
vt 0.875142 0.275165
vt 0.074633 0.476071
vt 0.090734 0.476071
vt 0.098149 0.476071
vt 0.114250 0.476071
vt 0.114250 0.972240
vt 0.098149 0.972240
vt 0.120487 0.478373
vt 0.136587 0.478373
vt 0.136587 0.971233
vt 0.120487 0.971233
vt 0.120487 0.696225
vt 0.120487 0.677685
vt 0.532814 0.761358
vt 0.426367 0.421050
vt 0.625678 0.421050
vt 0.625678 0.736390
vt 0.644218 0.736390
vt 0.644218 0.421050
vt 0.919227 0.421050
vt 0.778416 0.917219
vt 0.461227 0.314803
vt 0.630756 0.314793
vt 0.630757 0.337190
vt 0.461228 0.337200
vt 0.182362 0.314799
vt 0.182361 0.337196
vt 0.014773 0.277639
vt 0.429227 0.277583
vt 0.429228 0.299981
vt 0.014775 0.300036
vt 0.989470 0.658558
vt 0.520742 0.623880
vt 0.611934 0.537422
vt 0.928495 0.536457
vt 0.007110 0.664285
vt 0.072588 0.534868
vt 0.408992 0.537657
vt 0.505421 0.630045
vt 0.018397 0.314782
vt 0.018396 0.337179
vt 0.978680 0.868544
vt 0.533883 0.796879
vt 0.490492 0.813817
vt 0.017407 0.887497
vt 0.582781 0.277567
vt 0.582782 0.299964
vt 0.884901 0.952674
vt 0.586706 0.951442
vt 0.433496 0.977777
vt 0.116597 0.977425
vt 0.222624 0.242376
vt 0.616304 0.242428
vt 0.616302 0.264825
vt 0.222623 0.264773
vt 0.803459 0.277567
vt 0.803458 0.299965
vt 0.017348 0.242368
vt 0.017347 0.264766
vn -0.000000 -1.000000 0.000000
vn -0.000000 -1.000000 0.000000
vn -0.000000 -1.000000 0.000000
vn -0.000000 -1.000000 0.000000
vn -1.000000 0.000000 0.000000
vn -1.000000 0.000000 0.000000
vn -1.000000 0.000000 0.000000
vn -1.000000 0.000000 0.000000
vn 0.000000 0.000000 -1.000000
vn 0.000000 0.000000 -1.000000
vn 0.000000 0.000000 -1.000000
vn 0.000000 0.000000 -1.000000
vn 0.000000 0.000000 1.000000
vn 0.000000 0.000000 1.000000
vn 0.000000 0.000000 1.000000
vn 0.000000 0.000000 1.000000
vn 0.965962 0.258684 0.000000
vn 0.965962 0.258684 0.000000
vn 0.965962 0.258684 0.000000
vn 0.965962 0.258684 0.000000
vn -0.000015 1.000000 0.000000
vn -0.000015 1.000000 0.000000
vn -0.000015 1.000000 0.000000
vn -0.000015 1.000000 0.000000
vn 0.000000 -1.000000 0.000000
vn 0.000000 -1.000000 0.000000
vn 0.000000 -1.000000 0.000000
vn 0.000000 -1.000000 0.000000
vn 0.000000 0.298531 -0.954400
vn 0.000000 0.298531 -0.954400
vn 0.000000 0.298531 -0.954400
vn 0.000000 0.298531 -0.954400
vn -0.965962 0.258684 0.000000
vn -0.965962 0.258684 0.000000
vn -0.965962 0.258684 0.000000
vn -0.965962 0.258684 0.000000
vn -0.000000 0.000000 -1.000000
vn -0.000000 0.000000 -1.000000
vn -0.000000 0.000000 -1.000000
vn -0.000000 0.000000 -1.000000
vn -0.000000 0.000000 1.000000
vn -0.000000 0.000000 1.000000
vn -0.000000 0.000000 1.000000
vn -0.000000 0.000000 1.000000
vn 1.000000 0.000000 0.000000
vn 1.000000 0.000000 0.000000
vn 1.000000 0.000000 0.000000
vn 1.000000 0.000000 0.000000
vn -0.000015 1.000000 0.000000
vn -0.000015 1.000000 0.000000
vn -0.000015 1.000000 0.000000
vn -0.000015 1.000000 0.000000
vn 0.000000 0.844333 -0.535818
vn 0.000000 0.844333 -0.535818
vn 0.000000 0.844333 -0.535818
vn 0.000000 0.844333 -0.535818
vn 0.000000 0.273015 0.962010
vn 0.000000 0.273015 0.962010
vn 0.000000 0.273015 0.962010
vn 0.000000 0.273015 0.962010
vn 0.000000 -1.000000 0.000000
vn 0.000000 -1.000000 0.000000
vn 0.000000 -1.000000 0.000000
vn 0.000000 -1.000000 0.000000
vn -1.000000 0.000000 0.000000
vn -1.000000 0.000000 0.000000
vn -1.000000 0.000000 0.000000
vn -1.000000 0.000000 0.000000
vn -1.000000 0.000000 0.000000
vn -1.000000 0.000000 0.000000
vn -1.000000 0.000000 0.000000
vn -1.000000 0.000000 0.000000
vn -0.988830 -0.146243 0.028766
vn -0.894944 -0.432801 0.108432
vn -0.894944 -0.432801 0.108432
vn -0.988831 -0.146242 0.028766
vn -0.998580 0.047330 -0.024433
vn -0.998580 0.047330 -0.024433
vn 0.002258 -0.964381 0.264509
vn 0.002258 -0.964381 0.264509
vn 0.002258 -0.964381 0.264509
vn 0.002258 -0.964381 0.264509
vn 0.011061 -0.264468 -0.964331
vn 0.011061 -0.264468 -0.964331
vn 0.011061 -0.264469 -0.964331
vn 0.011061 -0.264469 -0.964331
vn -0.011061 0.264468 0.964331
vn -0.011061 0.264469 0.964331
vn -0.011061 0.264469 0.964331
vn -0.011061 0.264468 0.964331
vn -0.667147 0.716413 -0.204128
vn -0.667146 0.716413 -0.204128
vn -0.667147 0.716413 -0.204128
vn -0.667146 0.716413 -0.204128
vn 0.011061 -0.264469 -0.964331
vn 0.011061 -0.264469 -0.964331
vn -0.011061 0.264468 0.964331
vn -0.011061 0.264468 0.964331
vn 0.687406 -0.698361 0.199412
vn 0.687406 -0.698361 0.199412
vn 0.687406 -0.698361 0.199412
vn 0.687406 -0.698361 0.199412
vn 0.011061 -0.264469 -0.964331
vn 0.011061 -0.264469 -0.964331
vn -0.011061 0.264469 0.964331
vn -0.011061 0.264469 0.964331
vn 0.004919 0.964393 -0.264427
vn 0.004919 0.964393 -0.264427
vn 0.004919 0.964393 -0.264427
vn 0.004919 0.964393 -0.264427
vn 0.997125 0.075209 -0.009189
vn 0.980415 0.192510 -0.041550
vn 0.980415 0.192510 -0.041550
vn 0.997125 0.075209 -0.009189
vn 0.946462 0.313925 -0.075238
vn 0.946462 0.313925 -0.075238
s off
usemtl lambert6SG
f 1/1/1 2/2/2 3/3/3 4/4/4
f 4/5/5 5/6/6 6/7/7 1/8/8
f 2/9/9 1/10/10 6/11/11 7/12/12
f 4/13/13 3/14/14 8/15/15 5/16/16
f 3/17/17 2/18/18 7/19/19 8/20/20
f 8/21/21 7/22/22 6/23/23 5/24/24
s 1
f 9/25/25 10/26/26 11/27/27 12/28/28
s off
usemtl lambert5SG
f 13/29/29 14/30/30 15/31/31 16/32/32
usemtl lambert6SG
f 17/33/33 18/34/34 10/35/35 9/36/36
f 10/37/37 18/38/38 19/39/39 11/40/40
f 17/41/41 9/42/42 12/43/43 20/44/44
usemtl lambert5SG
f 14/45/45 21/46/46 22/47/47 15/48/48
usemtl lambert6SG
f 19/49/49 18/50/50 17/51/51 20/52/52
usemtl lambert5SG
f 23/53/53 21/54/54 14/30/55 13/29/56
f 24/55/57 22/56/58 21/57/59 23/58/60
s 1
f 16/59/61 15/60/62 22/61/63 24/62/64 12/63/28 11/64/27
s off
f 13/65/65 16/66/66 11/67/67 19/68/68 20/69/69 12/70/70 24/71/71 23/72/72
s 2
usemtl lambert13SG
f 25/73/73 26/74/74 27/75/75 28/76/76
f 29/77/77 25/73/73 28/76/76 30/78/78
s off
f 26/79/79 31/80/80 32/81/81 27/82/82
s 3
f 25/83/83 33/84/84 31/85/85 26/86/86
s 4
f 28/87/87 27/88/88 32/89/89 34/90/90
s off
f 35/91/91 29/77/92 30/78/93 36/92/94
s 3
f 25/83/83 29/93/95 37/94/96 33/84/84
s 4
f 28/87/87 34/90/90 38/95/97 30/96/98
s off
f 31/80/99 33/97/100 34/98/101 32/81/102
s 3
f 29/93/95 35/99/103 39/100/104 37/94/96
s 4
f 30/96/98 38/95/97 40/101/105 36/102/106
s off
f 39/103/107 35/104/108 36/105/109 40/106/110
s 5
f 33/97/111 37/107/112 38/108/113 34/98/114
f 37/109/112 39/103/115 40/106/116 38/110/113
