# This file uses centimeters as units for non-parametric coordinates.

mtllib Wolf_1.mtl
v 1.529729 0.570283 -0.340744
v 2.325906 0.448273 -0.298151
v 2.231561 0.714932 -0.372365
v 1.697732 0.715903 -0.378754
v 1.619101 -0.002892 -0.182526
v 2.185812 -0.000000 -0.176819
v 2.349187 0.149630 -0.215981
v 1.510116 0.207686 -0.241527
v 1.529475 0.576349 -0.318627
v 2.325652 0.454339 -0.276034
v 2.231307 0.720998 -0.350247
v 1.697478 0.721969 -0.356636
v 1.509862 0.213752 -0.219410
v 2.348933 0.155696 -0.193863
v 1.618847 0.003174 -0.160408
v 2.185558 0.006066 -0.154701
v 1.786888 -0.000000 -0.442755
v 1.786888 -0.000000 -0.460212
v 1.866406 0.296932 -0.442755
v 1.866406 0.296932 -0.460212
v 1.918856 0.000000 -0.460212
v 1.918856 0.000000 -0.442755
v 1.918856 0.296933 -0.460212
v 1.918856 0.296933 -0.442755
v 1.918855 0.000000 -0.647889
v 1.934016 0.000000 -0.647889
v 1.918855 0.320444 -0.547656
v 1.934016 0.320444 -0.547656
v 1.934016 0.000000 -0.183799
v 1.918855 0.000000 -0.183799
v 1.918855 0.467207 -0.316390
v 1.934016 0.467207 -0.316390
v 2.065984 -0.000000 -0.460212
v 2.065984 -0.000000 -0.442755
v 1.986465 0.296934 -0.460212
v 1.986465 0.296934 -0.442755
v 1.934016 0.000000 -0.442755
v 1.934016 0.000000 -0.460212
v 1.934016 0.296933 -0.460212
v 1.934016 0.296933 -0.442755
vt 0.017407 0.887497
vt 0.490492 0.813817
vt 0.433496 0.977777
vt 0.116597 0.977425
vt 0.007110 0.664285
vt 0.505421 0.630045
vt 0.072588 0.534868
vt 0.408992 0.537657
vt 0.978680 0.868544
vt 0.884901 0.952674
vt 0.586706 0.951442
vt 0.533883 0.796879
vt 0.989470 0.658558
vt 0.520742 0.623880
vt 0.611934 0.537422
vt 0.928495 0.536457
vt 0.017348 0.242368
vt 0.222624 0.242376
vt 0.222623 0.264773
vt 0.017347 0.264766
vt 0.616304 0.242428
vt 0.616302 0.264825
vt 0.018397 0.314782
vt 0.182362 0.314799
vt 0.182361 0.337196
vt 0.018396 0.337179
vt 0.582781 0.277567
vt 0.803459 0.277567
vt 0.803458 0.299965
vt 0.582782 0.299964
vt 0.461227 0.314803
vt 0.461228 0.337200
vt 0.630756 0.314793
vt 0.630757 0.337190
vt 0.014773 0.277639
vt 0.429227 0.277583
vt 0.429228 0.299981
vt 0.014775 0.300036
vt 0.875094 0.263039
vt 0.771251 0.263039
vt 0.771251 0.042402
vt 0.875094 0.042402
vt 0.741624 0.957596
vt 0.637780 0.957596
vt 0.637780 0.042402
vt 0.741624 0.042402
vt 0.036142 0.957598
vt 0.169089 0.042404
vt 0.256779 0.042402
vt 0.256779 0.957598
vt 0.395673 0.957596
vt 0.262726 0.042402
vt 0.483363 0.042402
vt 0.483363 0.957598
vt 0.875142 0.398925
vt 0.770633 0.398925
vt 0.770633 0.275165
vt 0.875142 0.275165
vt 0.511050 0.042402
vt 0.614893 0.042402
vt 0.614893 0.957598
vt 0.511050 0.957598
vt 0.120487 0.478373
vt 0.136587 0.478373
vt 0.136587 0.971233
vt 0.120487 0.971233
vt 0.074633 0.631931
vt 0.090734 0.631931
vt 0.090734 0.972240
vt 0.074633 0.972240
vt 0.074633 0.476071
vt 0.090734 0.476071
vt 0.098149 0.476071
vt 0.114250 0.476071
vt 0.114250 0.972240
vt 0.098149 0.972240
vt 0.435100 0.379941
vt 0.189498 0.535801
vt 0.048687 0.039632
vt 0.541547 0.039632
vt 0.532814 0.761358
vt 0.426367 0.421050
vt 0.919227 0.421050
vt 0.778416 0.917219
vt 0.771250 0.263038
vt 0.771250 0.042402
vt 0.875093 0.042402
vt 0.875093 0.263038
vt 0.256779 0.957598
vt 0.036142 0.957598
vt 0.036142 0.042404
vt 0.123831 0.042402
vt 0.262726 0.042402
vt 0.483362 0.042402
vt 0.350415 0.957598
vt 0.262726 0.957596
vt 0.511050 0.042402
vt 0.614893 0.042402
vt 0.614893 0.957598
vt 0.511050 0.957598
vt 0.875141 0.275164
vt 0.875141 0.398924
vt 0.770634 0.398924
vt 0.770634 0.275164
vt 0.741623 0.042402
vt 0.741623 0.957596
vt 0.637780 0.957596
vt 0.637780 0.042402
vn -0.011061 0.264469 0.964331
vn -0.011061 0.264469 0.964331
vn -0.011061 0.264469 0.964331
vn -0.011061 0.264469 0.964331
vn -0.011061 0.264469 0.964331
vn -0.011061 0.264469 0.964331
vn -0.011061 0.264468 0.964331
vn -0.011061 0.264468 0.964331
vn 0.011061 -0.264469 -0.964331
vn 0.011061 -0.264469 -0.964331
vn 0.011061 -0.264469 -0.964331
vn 0.011061 -0.264469 -0.964331
vn 0.011061 -0.264469 -0.964331
vn 0.011061 -0.264469 -0.964331
vn 0.011061 -0.264469 -0.964331
vn 0.011061 -0.264469 -0.964331
vn 0.980416 0.192507 -0.041550
vn 0.946462 0.313924 -0.075238
vn 0.946462 0.313924 -0.075238
vn 0.980416 0.192507 -0.041550
vn 0.004919 0.964393 -0.264427
vn 0.004919 0.964393 -0.264427
vn 0.004919 0.964393 -0.264427
vn 0.004919 0.964393 -0.264427
vn -0.667147 0.716412 -0.204128
vn -0.667147 0.716412 -0.204128
vn -0.667147 0.716412 -0.204128
vn -0.667147 0.716412 -0.204128
vn 0.997126 0.075202 -0.009188
vn 0.997126 0.075202 -0.009188
vn -0.998581 0.047329 -0.024433
vn -0.988830 -0.146243 0.028766
vn -0.988830 -0.146243 0.028766
vn -0.998581 0.047329 -0.024433
vn -0.894945 -0.432800 0.108432
vn -0.894945 -0.432800 0.108432
vn 0.002258 -0.964381 0.264509
vn 0.002258 -0.964381 0.264509
vn 0.002258 -0.964381 0.264509
vn 0.002258 -0.964381 0.264509
vn 0.687407 -0.698360 0.199412
vn 0.687407 -0.698360 0.199412
vn 0.687407 -0.698360 0.199412
vn 0.687407 -0.698360 0.199412
vn 0.000000 -1.000000 0.000000
vn 0.000000 -1.000000 0.000000
vn 0.000000 -1.000000 0.000000
vn 0.000000 -1.000000 0.000000
vn -0.965962 0.258684 0.000000
vn -0.965962 0.258684 0.000000
vn -0.965962 0.258684 0.000000
vn -0.965962 0.258684 0.000000
vn -0.000000 0.000000 -1.000000
vn -0.000000 0.000000 -1.000000
vn -0.000000 0.000000 -1.000000
vn -0.000000 0.000000 -1.000000
vn -0.000000 0.000000 1.000000
vn -0.000000 0.000000 1.000000
vn -0.000000 0.000000 1.000000
vn -0.000000 0.000000 1.000000
vn -0.000015 1.000000 0.000000
vn -0.000015 1.000000 0.000000
vn -0.000015 1.000000 0.000000
vn -0.000015 1.000000 0.000000
vn 1.000000 0.000000 0.000000
vn 1.000000 0.000000 0.000000
vn 1.000000 0.000000 0.000000
vn 1.000000 0.000000 0.000000
vn 0.000000 -1.000000 0.000000
vn 0.000000 -1.000000 0.000000
vn 0.000000 -1.000000 0.000000
vn 0.000000 -1.000000 0.000000
vn 0.000000 0.298531 -0.954400
vn 0.000000 0.298531 -0.954400
vn 0.000000 0.298531 -0.954400
vn 0.000000 0.298531 -0.954400
vn 0.000000 0.844333 -0.535818
vn 0.000000 0.844333 -0.535818
vn 0.000000 0.844333 -0.535818
vn 0.000000 0.844333 -0.535818
vn 0.000000 0.273015 0.962010
vn 0.000000 0.273015 0.962010
vn 0.000000 0.273015 0.962010
vn 0.000000 0.273015 0.962010
vn 1.000000 -0.000000 0.000000
vn 1.000000 -0.000000 0.000000
vn 1.000000 -0.000000 0.000000
vn 1.000000 -0.000000 0.000000
vn -1.000000 -0.000000 0.000000
vn -1.000000 -0.000000 0.000000
vn -1.000000 -0.000000 0.000000
vn -1.000000 -0.000000 0.000000
vn -0.000000 -1.000000 0.000000
vn -0.000000 -1.000000 0.000000
vn -0.000000 -1.000000 0.000000
vn -0.000000 -1.000000 0.000000
vn 0.000000 0.000000 -1.000000
vn 0.000000 0.000000 -1.000000
vn 0.000000 0.000000 -1.000000
vn 0.000000 0.000000 -1.000000
vn 0.000000 0.000000 1.000000
vn 0.000000 0.000000 1.000000
vn 0.000000 0.000000 1.000000
vn 0.000000 0.000000 1.000000
vn 0.965962 0.258684 0.000000
vn 0.965962 0.258684 0.000000
vn 0.965962 0.258684 0.000000
vn 0.965962 0.258684 0.000000
vn -0.000015 1.000000 0.000000
vn -0.000015 1.000000 0.000000
vn -0.000015 1.000000 0.000000
vn -0.000015 1.000000 0.000000
vn -1.000000 0.000000 0.000000
vn -1.000000 0.000000 0.000000
vn -1.000000 0.000000 0.000000
vn -1.000000 0.000000 0.000000
s 1
usemtl lambert14SG
f 9/1/1 10/2/2 11/3/3 12/4/4
f 13/5/5 14/6/6 10/2/2 9/1/1
f 13/5/5 15/7/7 16/8/8 14/6/6
s 2
f 1/9/9 4/10/10 3/11/11 2/12/12
f 8/13/13 1/9/9 2/12/12 7/14/14
f 8/13/13 7/14/14 6/15/15 5/16/16
s 3
f 2/17/17 3/18/18 11/19/19 10/20/20
s off
f 3/18/21 4/21/22 12/22/23 11/19/24
f 4/23/25 1/24/26 9/25/27 12/26/28
s 3
f 7/27/29 2/28/17 10/29/20 14/30/30
s 4
f 1/24/31 8/31/32 13/32/33 9/25/34
f 8/31/32 5/33/35 15/34/36 13/32/33
s off
f 5/35/37 6/36/38 16/37/39 15/38/40
f 6/36/41 7/27/42 14/30/43 16/37/44
usemtl lambert6SG
f 17/39/45 18/40/46 21/41/47 22/42/48
f 19/43/49 20/44/50 18/45/51 17/46/52
f 18/47/53 20/48/54 23/49/55 21/50/56
f 19/51/57 17/52/58 22/53/59 24/54/60
f 23/55/61 20/56/62 19/57/63 24/58/64
f 22/59/65 21/60/66 23/61/67 24/62/68
usemtl lambert5SG
f 25/63/69 26/64/70 29/65/71 30/66/72
f 27/67/73 28/68/74 26/69/75 25/70/76
f 31/71/77 32/72/78 28/68/79 27/67/80
f 30/73/81 29/74/82 32/75/83 31/76/84
f 28/77/85 32/78/86 29/79/87 26/80/88
f 27/81/89 25/82/90 30/83/91 31/84/92
usemtl lambert6SG
f 38/85/93 33/86/94 34/87/95 37/88/96
f 33/89/97 38/90/98 39/91/99 35/92/100
f 37/93/101 34/94/102 36/95/103 40/96/104
f 34/97/105 33/98/106 35/99/107 36/100/108
f 36/101/109 35/102/110 39/103/111 40/104/112
f 37/105/113 40/106/114 39/107/115 38/108/116
